PathFileType	4	(X/Y/Z)	D:\TRACE\spotREDO_2-26-24\spot_Both_Motion_3_4-v60.trc
DataRate	CameraRate	NumFrames	NumMarkers	Units	OrigDataRate	OrigDataStartFrame	OrigNumFrames
100.00	100.00	      17	9	mm	100.00	6126	      7000
Frame#	Time	front left toe			Front right toe			aft left toe			aft right toe			Arm			FL body			FR body			AL Body			AR Body			
		X1	Y1	Z1	X2	Y2	Z2	X3	Y3	Z3	X4	Y4	Z4	X5	Y5	Z5	X6	Y6	Z6	X7	Y7	Z7	X8	Y8	Z8	X9	Y9	Z9	

6126	61.250	-151.67188	159.41098	-400.37286	253.58562	39.47588	-469.15347	-101.59570	12.51438	163.75494	282.63043	22.42643	59.48243	61.03751	755.17682	-717.31317	-28.03170	612.77490	-477.43796	127.86343	619.30103	-486.30072	19.06553	544.17297	402.90747	166.20169	539.54608	396.50241	
6127	61.260	-146.39308	158.48087	-401.52289	253.43045	39.43021	-469.21179	-101.65123	12.59241	163.74509	282.43732	22.77483	59.32037	64.69149	754.28308	-717.62537	-28.83668	612.44824	-477.28918	126.20602	619.00513	-486.29071	18.10150	544.24609	403.05621	165.38013	539.80444	396.56873	
6128	61.270	-141.84915	157.89494	-402.79208	253.44305	39.30243	-469.20636	-101.72999	12.48389	163.68573	282.37033	22.99620	59.32384	66.47482	754.18774	-718.63824	-29.44910	611.77209	-477.08194	126.07506	618.67078	-486.26172	16.82997	544.20172	403.11551	164.23235	539.87714	396.71426	
6129	61.280	-138.45593	157.54718	-403.39893	253.69257	38.86967	-469.00891	-101.79169	12.22438	163.58286	282.24063	23.13557	59.33065	68.97910	753.62671	-719.39532	-29.53779	611.27228	-477.15945	125.98666	618.26544	-486.12460	15.21292	544.27667	403.05551	162.60529	540.16187	397.06870	
6130	61.290	-137.73618	156.85637	-403.79391	254.44769	38.80943	-468.47382	-101.92490	11.96414	163.50409	282.01492	23.17786	59.37041	68.85411	753.54321	-719.89453	-29.27304	610.72125	-477.55573	126.42273	617.77502	-485.96857	13.15660	544.37445	402.99457	160.46101	540.30481	397.20636	
6131	61.300	-138.22736	155.79761	-403.90430	254.49165	38.36088	-468.47177	-102.10642	11.53884	163.48193	281.63983	23.16678	59.51730	67.83965	753.77667	-720.65729	-28.99039	610.20807	-477.92636	126.89639	617.14349	-485.72043	10.83172	544.20557	402.80270	158.19577	540.25751	397.47702	
6132	61.310	-139.74957	154.01872	-404.16861	254.74506	37.99317	-468.20383	-102.47559	11.32417	163.36337	281.45837	23.27293	59.63856	65.48139	754.17236	-721.17200	-28.69837	609.79602	-478.14362	126.76701	616.59894	-485.66232	8.94347	544.26465	402.63632	156.19833	540.05725	397.73929	
6133	61.320	-142.60846	148.91522	-404.29120	254.96283	37.70988	-468.21680	-102.73692	11.23769	163.24142	281.29053	23.37527	59.77651	62.95640	754.61267	-721.61066	-28.68531	609.57990	-478.23892	126.84478	615.92053	-485.56354	7.07937	544.28558	402.55246	154.38129	539.88556	398.07095	
6134	61.330	-145.39195	141.46788	-405.10980	254.98364	37.64220	-468.24744	-102.85155	11.31040	163.11618	281.23471	23.31170	59.72677	61.31668	754.83612	-721.67145	-29.55925	609.52789	-478.61612	125.70309	615.55377	-485.51498	5.51050	544.09705	402.48157	153.09212	539.50720	398.16919	
6135	61.340	-147.63214	132.05408	-405.55984	254.70700	37.92467	-468.13013	-102.77349	11.30894	163.10538	281.21582	23.31611	59.71602	59.00930	755.29944	-721.69104	-30.54685	609.39972	-478.77222	125.15446	615.53540	-485.54288	4.70656	543.91229	402.31631	151.92177	539.22589	398.00052	
6136	61.350	-149.63393	120.90267	-405.37180	254.43449	38.14544	-468.25861	-102.73386	11.28501	163.10080	281.16119	23.22935	59.55363	57.99578	755.61432	-721.60431	-32.18167	609.21057	-478.46381	123.24885	615.64569	-485.89536	4.10784	543.84875	402.38409	151.21150	538.99103	397.75262	
6137	61.360	-152.24068	109.66093	-404.38031	254.16785	38.61530	-468.55652	-102.64066	11.30617	163.31436	281.13568	23.28889	59.39100	57.33314	756.01318	-721.54480	-34.56332	609.45844	-478.63556	120.94164	615.88330	-486.19336	3.46109	543.68463	402.37839	150.71086	538.98663	397.47250	
6138	61.370	-154.28191	98.18114	-402.98605	253.64929	38.64011	-468.94443	-102.54312	11.39957	163.44800	281.11835	23.35718	59.29507	57.53407	756.15430	-721.32336	-36.90091	609.37866	-478.32813	118.50271	616.07745	-486.29544	3.05941	543.58722	402.44171	150.41306	539.23114	397.26947	
6139	61.380	-156.62167	87.29817	-401.63498	252.91824	39.01674	-469.27783	-102.43493	11.59211	163.48079	281.09164	23.45257	59.13044	58.17793	756.15692	-721.14642	-39.87839	609.40656	-478.35092	115.85046	616.15112	-486.46384	2.51834	543.73077	402.51324	150.12111	539.45380	396.94650	
6140	61.390	-159.54924	77.24129	-400.50925	252.12550	39.71586	-469.30212	-102.37939	11.78803	163.50093	281.19168	23.37621	58.93995	59.32203	755.93542	-720.87994	-42.35751	609.10913	-477.77661	112.88744	616.22424	-486.84793	2.17877	543.90680	402.33246	149.52693	539.69879	396.71530	
6141	61.400	-161.77022	66.71649	-399.79239	251.94716	39.78787	-469.48795	-102.28607	11.81787	163.56558	281.26559	23.38461	58.66649	60.57190	755.63855	-720.38434	-45.44861	609.21277	-477.91888	110.17860	616.11951	-487.08664	1.10405	544.09387	402.32590	148.16307	540.11774	396.23187	
6142	61.410	-163.42978	56.65943	-400.14355	251.59386	40.13134	-469.52319	-102.30410	11.74682	163.61931	281.19891	23.42056	58.54281	61.30106	755.37256	-720.43475	-47.87287	608.73926	-477.66696	107.45308	616.12445	-487.34488	-0.49333	544.52008	402.40967	147.17876	540.47827	395.95306	
